G04 #@! TF.GenerationSoftware,KiCad,Pcbnew,(2017-04-04 revision 5dbfc0233)-makepkg*
G04 #@! TF.CreationDate,2017-04-22T22:17:14+08:00*
G04 #@! TF.ProjectId,ErgoDone,4572676F446F6E652E6B696361645F70,rev?*
G04 #@! TF.FileFunction,Legend,Bot*
G04 #@! TF.FilePolarity,Positive*
%FSLAX46Y46*%
G04 Gerber Fmt 4.6, Leading zero omitted, Abs format (unit mm)*
G04 Created by KiCad (PCBNEW (2017-04-04 revision 5dbfc0233)-makepkg) date 04/22/17 22:17:14*
%MOMM*%
%LPD*%
G01*
G04 APERTURE LIST*
%ADD10C,0.150000*%
%ADD11C,1.905000*%
%ADD12C,0.304800*%
%ADD13C,0.254000*%
%ADD14C,0.203200*%
%ADD15C,0.508000*%
%ADD16C,0.300000*%
%ADD17C,0.381000*%
G04 APERTURE END LIST*
D10*
D11*
X149901000Y-46520714D02*
X146345000Y-46520714D01*
X144821000Y-50512142D02*
X149901000Y-50512142D01*
X149901000Y-42892142D01*
X144821000Y-42892142D01*
X140249000Y-50512142D02*
X140249000Y-45432142D01*
X140249000Y-46883571D02*
X139741000Y-46157857D01*
X139233000Y-45795000D01*
X138217000Y-45432142D01*
X137201000Y-45432142D01*
X129073000Y-45432142D02*
X129073000Y-51600714D01*
X129581000Y-52326428D01*
X130089000Y-52689285D01*
X131105000Y-53052142D01*
X132629000Y-53052142D01*
X133645000Y-52689285D01*
X129073000Y-50149285D02*
X130089000Y-50512142D01*
X132121000Y-50512142D01*
X133137000Y-50149285D01*
X133645000Y-49786428D01*
X134153000Y-49060714D01*
X134153000Y-46883571D01*
X133645000Y-46157857D01*
X133137000Y-45795000D01*
X132121000Y-45432142D01*
X130089000Y-45432142D01*
X129073000Y-45795000D01*
X122469000Y-50512142D02*
X123485000Y-50149285D01*
X123993000Y-49786428D01*
X124501000Y-49060714D01*
X124501000Y-46883571D01*
X123993000Y-46157857D01*
X123485000Y-45795000D01*
X122469000Y-45432142D01*
X120945000Y-45432142D01*
X119929000Y-45795000D01*
X119421000Y-46157857D01*
X118913000Y-46883571D01*
X118913000Y-49060714D01*
X119421000Y-49786428D01*
X119929000Y-50149285D01*
X120945000Y-50512142D01*
X122469000Y-50512142D01*
X114341000Y-50512142D02*
X114341000Y-42892142D01*
X111801000Y-42892142D01*
X110277000Y-43255000D01*
X109261000Y-43980714D01*
X108753000Y-44706428D01*
X108245000Y-46157857D01*
X108245000Y-47246428D01*
X108753000Y-48697857D01*
X109261000Y-49423571D01*
X110277000Y-50149285D01*
X111801000Y-50512142D01*
X114341000Y-50512142D01*
X95545000Y-45432142D02*
X95545000Y-50512142D01*
X95545000Y-46157857D02*
X95037000Y-45795000D01*
X94021000Y-45432142D01*
X92497000Y-45432142D01*
X91481000Y-45795000D01*
X90973000Y-46520714D01*
X90973000Y-50512142D01*
X81829000Y-50149285D02*
X82845000Y-50512142D01*
X84877000Y-50512142D01*
X85893000Y-50149285D01*
X86401000Y-49423571D01*
X86401000Y-46520714D01*
X85893000Y-45795000D01*
X84877000Y-45432142D01*
X82845000Y-45432142D01*
X81829000Y-45795000D01*
X81321000Y-46520714D01*
X81321000Y-47246428D01*
X86401000Y-47972142D01*
D12*
X156210000Y-46355000D02*
X160655000Y-46355000D01*
X156210000Y-38735000D02*
X156210000Y-46355000D01*
X160655000Y-38735000D02*
X156210000Y-38735000D01*
X157637238Y-40621857D02*
X159282190Y-40621857D01*
X159475714Y-40694428D01*
X159572476Y-40767000D01*
X159669238Y-40912142D01*
X159669238Y-41202428D01*
X159572476Y-41347571D01*
X159475714Y-41420142D01*
X159282190Y-41492714D01*
X157637238Y-41492714D01*
X159572476Y-42145857D02*
X159669238Y-42363571D01*
X159669238Y-42726428D01*
X159572476Y-42871571D01*
X159475714Y-42944142D01*
X159282190Y-43016714D01*
X159088666Y-43016714D01*
X158895142Y-42944142D01*
X158798380Y-42871571D01*
X158701619Y-42726428D01*
X158604857Y-42436142D01*
X158508095Y-42291000D01*
X158411333Y-42218428D01*
X158217809Y-42145857D01*
X158024285Y-42145857D01*
X157830761Y-42218428D01*
X157734000Y-42291000D01*
X157637238Y-42436142D01*
X157637238Y-42799000D01*
X157734000Y-43016714D01*
X158604857Y-44177857D02*
X158701619Y-44395571D01*
X158798380Y-44468142D01*
X158991904Y-44540714D01*
X159282190Y-44540714D01*
X159475714Y-44468142D01*
X159572476Y-44395571D01*
X159669238Y-44250428D01*
X159669238Y-43669857D01*
X157637238Y-43669857D01*
X157637238Y-44177857D01*
X157734000Y-44323000D01*
X157830761Y-44395571D01*
X158024285Y-44468142D01*
X158217809Y-44468142D01*
X158411333Y-44395571D01*
X158508095Y-44323000D01*
X158604857Y-44177857D01*
X158604857Y-43669857D01*
X203287476Y-73667571D02*
X203384238Y-73885285D01*
X203384238Y-74248142D01*
X203287476Y-74393285D01*
X203190714Y-74465857D01*
X202997190Y-74538428D01*
X202803666Y-74538428D01*
X202610142Y-74465857D01*
X202513380Y-74393285D01*
X202416619Y-74248142D01*
X202319857Y-73957857D01*
X202223095Y-73812714D01*
X202126333Y-73740142D01*
X201932809Y-73667571D01*
X201739285Y-73667571D01*
X201545761Y-73740142D01*
X201449000Y-73812714D01*
X201352238Y-73957857D01*
X201352238Y-74320714D01*
X201449000Y-74538428D01*
X202029571Y-75191571D02*
X204061571Y-75191571D01*
X202126333Y-75191571D02*
X202029571Y-75336714D01*
X202029571Y-75627000D01*
X202126333Y-75772142D01*
X202223095Y-75844714D01*
X202416619Y-75917285D01*
X202997190Y-75917285D01*
X203190714Y-75844714D01*
X203287476Y-75772142D01*
X203384238Y-75627000D01*
X203384238Y-75336714D01*
X203287476Y-75191571D01*
X203287476Y-77151000D02*
X203384238Y-77005857D01*
X203384238Y-76715571D01*
X203287476Y-76570428D01*
X203093952Y-76497857D01*
X202319857Y-76497857D01*
X202126333Y-76570428D01*
X202029571Y-76715571D01*
X202029571Y-77005857D01*
X202126333Y-77151000D01*
X202319857Y-77223571D01*
X202513380Y-77223571D01*
X202706904Y-76497857D01*
X203287476Y-78529857D02*
X203384238Y-78384714D01*
X203384238Y-78094428D01*
X203287476Y-77949285D01*
X203190714Y-77876714D01*
X202997190Y-77804142D01*
X202416619Y-77804142D01*
X202223095Y-77876714D01*
X202126333Y-77949285D01*
X202029571Y-78094428D01*
X202029571Y-78384714D01*
X202126333Y-78529857D01*
X203384238Y-79183000D02*
X202029571Y-79183000D01*
X201352238Y-79183000D02*
X201449000Y-79110428D01*
X201545761Y-79183000D01*
X201449000Y-79255571D01*
X201352238Y-79183000D01*
X201545761Y-79183000D01*
X203384238Y-80561857D02*
X202319857Y-80561857D01*
X202126333Y-80489285D01*
X202029571Y-80344142D01*
X202029571Y-80053857D01*
X202126333Y-79908714D01*
X203287476Y-80561857D02*
X203384238Y-80416714D01*
X203384238Y-80053857D01*
X203287476Y-79908714D01*
X203093952Y-79836142D01*
X202900428Y-79836142D01*
X202706904Y-79908714D01*
X202610142Y-80053857D01*
X202610142Y-80416714D01*
X202513380Y-80561857D01*
X203384238Y-81505285D02*
X203287476Y-81360142D01*
X203093952Y-81287571D01*
X201352238Y-81287571D01*
X201352238Y-83029285D02*
X201352238Y-83900142D01*
X203384238Y-83464714D02*
X201352238Y-83464714D01*
X203384238Y-84408142D02*
X201352238Y-84408142D01*
X203384238Y-85061285D02*
X202319857Y-85061285D01*
X202126333Y-84988714D01*
X202029571Y-84843571D01*
X202029571Y-84625857D01*
X202126333Y-84480714D01*
X202223095Y-84408142D01*
X203384238Y-86440142D02*
X202319857Y-86440142D01*
X202126333Y-86367571D01*
X202029571Y-86222428D01*
X202029571Y-85932142D01*
X202126333Y-85787000D01*
X203287476Y-86440142D02*
X203384238Y-86295000D01*
X203384238Y-85932142D01*
X203287476Y-85787000D01*
X203093952Y-85714428D01*
X202900428Y-85714428D01*
X202706904Y-85787000D01*
X202610142Y-85932142D01*
X202610142Y-86295000D01*
X202513380Y-86440142D01*
X202029571Y-87165857D02*
X203384238Y-87165857D01*
X202223095Y-87165857D02*
X202126333Y-87238428D01*
X202029571Y-87383571D01*
X202029571Y-87601285D01*
X202126333Y-87746428D01*
X202319857Y-87819000D01*
X203384238Y-87819000D01*
X203384238Y-88544714D02*
X201352238Y-88544714D01*
X202610142Y-88689857D02*
X203384238Y-89125285D01*
X202029571Y-89125285D02*
X202803666Y-88544714D01*
X203287476Y-89705857D02*
X203384238Y-89851000D01*
X203384238Y-90141285D01*
X203287476Y-90286428D01*
X203093952Y-90359000D01*
X202997190Y-90359000D01*
X202803666Y-90286428D01*
X202706904Y-90141285D01*
X202706904Y-89923571D01*
X202610142Y-89778428D01*
X202416619Y-89705857D01*
X202319857Y-89705857D01*
X202126333Y-89778428D01*
X202029571Y-89923571D01*
X202029571Y-90141285D01*
X202126333Y-90286428D01*
X202029571Y-91955571D02*
X202029571Y-92536142D01*
X201352238Y-92173285D02*
X203093952Y-92173285D01*
X203287476Y-92245857D01*
X203384238Y-92391000D01*
X203384238Y-92536142D01*
X203384238Y-93261857D02*
X203287476Y-93116714D01*
X203190714Y-93044142D01*
X202997190Y-92971571D01*
X202416619Y-92971571D01*
X202223095Y-93044142D01*
X202126333Y-93116714D01*
X202029571Y-93261857D01*
X202029571Y-93479571D01*
X202126333Y-93624714D01*
X202223095Y-93697285D01*
X202416619Y-93769857D01*
X202997190Y-93769857D01*
X203190714Y-93697285D01*
X203287476Y-93624714D01*
X203384238Y-93479571D01*
X203384238Y-93261857D01*
X201352238Y-95874428D02*
X201352238Y-96164714D01*
X201449000Y-96309857D01*
X201642523Y-96455000D01*
X202029571Y-96527571D01*
X202706904Y-96527571D01*
X203093952Y-96455000D01*
X203287476Y-96309857D01*
X203384238Y-96164714D01*
X203384238Y-95874428D01*
X203287476Y-95729285D01*
X203093952Y-95584142D01*
X202706904Y-95511571D01*
X202029571Y-95511571D01*
X201642523Y-95584142D01*
X201449000Y-95729285D01*
X201352238Y-95874428D01*
X203384238Y-97180714D02*
X202029571Y-97180714D01*
X202416619Y-97180714D02*
X202223095Y-97253285D01*
X202126333Y-97325857D01*
X202029571Y-97471000D01*
X202029571Y-97616142D01*
X203384238Y-98124142D02*
X202029571Y-98124142D01*
X201352238Y-98124142D02*
X201449000Y-98051571D01*
X201545761Y-98124142D01*
X201449000Y-98196714D01*
X201352238Y-98124142D01*
X201545761Y-98124142D01*
X202029571Y-99503000D02*
X203674523Y-99503000D01*
X203868047Y-99430428D01*
X203964809Y-99357857D01*
X204061571Y-99212714D01*
X204061571Y-98995000D01*
X203964809Y-98849857D01*
X203287476Y-99503000D02*
X203384238Y-99357857D01*
X203384238Y-99067571D01*
X203287476Y-98922428D01*
X203190714Y-98849857D01*
X202997190Y-98777285D01*
X202416619Y-98777285D01*
X202223095Y-98849857D01*
X202126333Y-98922428D01*
X202029571Y-99067571D01*
X202029571Y-99357857D01*
X202126333Y-99503000D01*
X203384238Y-100228714D02*
X202029571Y-100228714D01*
X201352238Y-100228714D02*
X201449000Y-100156142D01*
X201545761Y-100228714D01*
X201449000Y-100301285D01*
X201352238Y-100228714D01*
X201545761Y-100228714D01*
X202029571Y-100954428D02*
X203384238Y-100954428D01*
X202223095Y-100954428D02*
X202126333Y-101027000D01*
X202029571Y-101172142D01*
X202029571Y-101389857D01*
X202126333Y-101535000D01*
X202319857Y-101607571D01*
X203384238Y-101607571D01*
X203384238Y-102986428D02*
X202319857Y-102986428D01*
X202126333Y-102913857D01*
X202029571Y-102768714D01*
X202029571Y-102478428D01*
X202126333Y-102333285D01*
X203287476Y-102986428D02*
X203384238Y-102841285D01*
X203384238Y-102478428D01*
X203287476Y-102333285D01*
X203093952Y-102260714D01*
X202900428Y-102260714D01*
X202706904Y-102333285D01*
X202610142Y-102478428D01*
X202610142Y-102841285D01*
X202513380Y-102986428D01*
X203384238Y-103929857D02*
X203287476Y-103784714D01*
X203093952Y-103712142D01*
X201352238Y-103712142D01*
X202319857Y-105671571D02*
X202319857Y-106179571D01*
X203384238Y-106397285D02*
X203384238Y-105671571D01*
X201352238Y-105671571D01*
X201352238Y-106397285D01*
X203384238Y-107050428D02*
X202029571Y-107050428D01*
X202416619Y-107050428D02*
X202223095Y-107123000D01*
X202126333Y-107195571D01*
X202029571Y-107340714D01*
X202029571Y-107485857D01*
X202029571Y-108647000D02*
X203674523Y-108647000D01*
X203868047Y-108574428D01*
X203964809Y-108501857D01*
X204061571Y-108356714D01*
X204061571Y-108139000D01*
X203964809Y-107993857D01*
X203287476Y-108647000D02*
X203384238Y-108501857D01*
X203384238Y-108211571D01*
X203287476Y-108066428D01*
X203190714Y-107993857D01*
X202997190Y-107921285D01*
X202416619Y-107921285D01*
X202223095Y-107993857D01*
X202126333Y-108066428D01*
X202029571Y-108211571D01*
X202029571Y-108501857D01*
X202126333Y-108647000D01*
X203384238Y-109590428D02*
X203287476Y-109445285D01*
X203190714Y-109372714D01*
X202997190Y-109300142D01*
X202416619Y-109300142D01*
X202223095Y-109372714D01*
X202126333Y-109445285D01*
X202029571Y-109590428D01*
X202029571Y-109808142D01*
X202126333Y-109953285D01*
X202223095Y-110025857D01*
X202416619Y-110098428D01*
X202997190Y-110098428D01*
X203190714Y-110025857D01*
X203287476Y-109953285D01*
X203384238Y-109808142D01*
X203384238Y-109590428D01*
X203384238Y-110751571D02*
X201352238Y-110751571D01*
X201352238Y-111114428D01*
X201449000Y-111332142D01*
X201642523Y-111477285D01*
X201836047Y-111549857D01*
X202223095Y-111622428D01*
X202513380Y-111622428D01*
X202900428Y-111549857D01*
X203093952Y-111477285D01*
X203287476Y-111332142D01*
X203384238Y-111114428D01*
X203384238Y-110751571D01*
X201352238Y-112565857D02*
X201352238Y-112856142D01*
X201449000Y-113001285D01*
X201642523Y-113146428D01*
X202029571Y-113218999D01*
X202706904Y-113218999D01*
X203093952Y-113146428D01*
X203287476Y-113001285D01*
X203384238Y-112856142D01*
X203384238Y-112565857D01*
X203287476Y-112420714D01*
X203093952Y-112275571D01*
X202706904Y-112202999D01*
X202029571Y-112202999D01*
X201642523Y-112275571D01*
X201449000Y-112420714D01*
X201352238Y-112565857D01*
X201352238Y-113726999D02*
X203384238Y-114742999D01*
X201352238Y-114742999D02*
X203384238Y-113726999D01*
X203384238Y-116484714D02*
X201352238Y-116484714D01*
X201352238Y-116847571D01*
X201449000Y-117065285D01*
X201642523Y-117210428D01*
X201836047Y-117282999D01*
X202223095Y-117355571D01*
X202513380Y-117355571D01*
X202900428Y-117282999D01*
X203093952Y-117210428D01*
X203287476Y-117065285D01*
X203384238Y-116847571D01*
X203384238Y-116484714D01*
X203287476Y-118589285D02*
X203384238Y-118444142D01*
X203384238Y-118153857D01*
X203287476Y-118008714D01*
X203093952Y-117936142D01*
X202319857Y-117936142D01*
X202126333Y-118008714D01*
X202029571Y-118153857D01*
X202029571Y-118444142D01*
X202126333Y-118589285D01*
X202319857Y-118661857D01*
X202513380Y-118661857D01*
X202706904Y-117936142D01*
X203287476Y-119242428D02*
X203384238Y-119387571D01*
X203384238Y-119677857D01*
X203287476Y-119822999D01*
X203093952Y-119895571D01*
X202997190Y-119895571D01*
X202803666Y-119822999D01*
X202706904Y-119677857D01*
X202706904Y-119460142D01*
X202610142Y-119314999D01*
X202416619Y-119242428D01*
X202319857Y-119242428D01*
X202126333Y-119314999D01*
X202029571Y-119460142D01*
X202029571Y-119677857D01*
X202126333Y-119822999D01*
X203384238Y-120548714D02*
X202029571Y-120548714D01*
X201352238Y-120548714D02*
X201449000Y-120476142D01*
X201545761Y-120548714D01*
X201449000Y-120621285D01*
X201352238Y-120548714D01*
X201545761Y-120548714D01*
X202029571Y-121927571D02*
X203674523Y-121927571D01*
X203868047Y-121854999D01*
X203964809Y-121782428D01*
X204061571Y-121637285D01*
X204061571Y-121419571D01*
X203964809Y-121274428D01*
X203287476Y-121927571D02*
X203384238Y-121782428D01*
X203384238Y-121492142D01*
X203287476Y-121346999D01*
X203190714Y-121274428D01*
X202997190Y-121201857D01*
X202416619Y-121201857D01*
X202223095Y-121274428D01*
X202126333Y-121346999D01*
X202029571Y-121492142D01*
X202029571Y-121782428D01*
X202126333Y-121927571D01*
X202029571Y-122653285D02*
X203384238Y-122653285D01*
X202223095Y-122653285D02*
X202126333Y-122725857D01*
X202029571Y-122870999D01*
X202029571Y-123088714D01*
X202126333Y-123233857D01*
X202319857Y-123306428D01*
X203384238Y-123306428D01*
X203287476Y-124612714D02*
X203384238Y-124467571D01*
X203384238Y-124177285D01*
X203287476Y-124032142D01*
X203093952Y-123959571D01*
X202319857Y-123959571D01*
X202126333Y-124032142D01*
X202029571Y-124177285D01*
X202029571Y-124467571D01*
X202126333Y-124612714D01*
X202319857Y-124685285D01*
X202513380Y-124685285D01*
X202706904Y-123959571D01*
X203384238Y-125338428D02*
X202029571Y-125338428D01*
X202416619Y-125338428D02*
X202223095Y-125410999D01*
X202126333Y-125483571D01*
X202029571Y-125628714D01*
X202029571Y-125773857D01*
X203287476Y-126209285D02*
X203384238Y-126354428D01*
X203384238Y-126644714D01*
X203287476Y-126789857D01*
X203093952Y-126862428D01*
X202997190Y-126862428D01*
X202803666Y-126789857D01*
X202706904Y-126644714D01*
X202706904Y-126426999D01*
X202610142Y-126281857D01*
X202416619Y-126209285D01*
X202319857Y-126209285D01*
X202126333Y-126281857D01*
X202029571Y-126426999D01*
X202029571Y-126644714D01*
X202126333Y-126789857D01*
D13*
X87176428Y-52644523D02*
X86753095Y-53914523D01*
X86329761Y-52644523D01*
X85422619Y-53854047D02*
X85543571Y-53914523D01*
X85785476Y-53914523D01*
X85906428Y-53854047D01*
X85966904Y-53733095D01*
X85966904Y-53249285D01*
X85906428Y-53128333D01*
X85785476Y-53067857D01*
X85543571Y-53067857D01*
X85422619Y-53128333D01*
X85362142Y-53249285D01*
X85362142Y-53370238D01*
X85966904Y-53491190D01*
X84817857Y-53914523D02*
X84817857Y-53067857D01*
X84817857Y-53309761D02*
X84757380Y-53188809D01*
X84696904Y-53128333D01*
X84575952Y-53067857D01*
X84455000Y-53067857D01*
X82398809Y-53914523D02*
X83124523Y-53914523D01*
X82761666Y-53914523D02*
X82761666Y-52644523D01*
X82882619Y-52825952D01*
X83003571Y-52946904D01*
X83124523Y-53007380D01*
X81854523Y-53793571D02*
X81794047Y-53854047D01*
X81854523Y-53914523D01*
X81915000Y-53854047D01*
X81854523Y-53793571D01*
X81854523Y-53914523D01*
X81310238Y-52765476D02*
X81249761Y-52705000D01*
X81128809Y-52644523D01*
X80826428Y-52644523D01*
X80705476Y-52705000D01*
X80645000Y-52765476D01*
X80584523Y-52886428D01*
X80584523Y-53007380D01*
X80645000Y-53188809D01*
X81370714Y-53914523D01*
X80584523Y-53914523D01*
D14*
X140700000Y-42624619D02*
X140700000Y-41608619D01*
X140095238Y-42624619D02*
X140095238Y-41608619D01*
X139792857Y-41608619D01*
X139611428Y-41657000D01*
X139490476Y-41753761D01*
X139430000Y-41850523D01*
X139369523Y-42044047D01*
X139369523Y-42189190D01*
X139430000Y-42382714D01*
X139490476Y-42479476D01*
X139611428Y-42576238D01*
X139792857Y-42624619D01*
X140095238Y-42624619D01*
X138583809Y-42624619D02*
X138583809Y-41608619D01*
X138281428Y-41608619D01*
X138100000Y-41657000D01*
X137979047Y-41753761D01*
X137918571Y-41850523D01*
X137858095Y-42044047D01*
X137858095Y-42189190D01*
X137918571Y-42382714D01*
X137979047Y-42479476D01*
X138100000Y-42576238D01*
X138281428Y-42624619D01*
X138583809Y-42624619D01*
X137313809Y-42237571D02*
X136346190Y-42237571D01*
X136830000Y-42624619D02*
X136830000Y-41850523D01*
X146532619Y-39957000D02*
X146653571Y-39908619D01*
X146835000Y-39908619D01*
X147016428Y-39957000D01*
X147137380Y-40053761D01*
X147197857Y-40150523D01*
X147258333Y-40344047D01*
X147258333Y-40489190D01*
X147197857Y-40682714D01*
X147137380Y-40779476D01*
X147016428Y-40876238D01*
X146835000Y-40924619D01*
X146714047Y-40924619D01*
X146532619Y-40876238D01*
X146472142Y-40827857D01*
X146472142Y-40489190D01*
X146714047Y-40489190D01*
X145927857Y-40924619D02*
X145927857Y-39908619D01*
X145202142Y-40924619D01*
X145202142Y-39908619D01*
X144597380Y-40924619D02*
X144597380Y-39908619D01*
X144295000Y-39908619D01*
X144113571Y-39957000D01*
X143992619Y-40053761D01*
X143932142Y-40150523D01*
X143871666Y-40344047D01*
X143871666Y-40489190D01*
X143932142Y-40682714D01*
X143992619Y-40779476D01*
X144113571Y-40876238D01*
X144295000Y-40924619D01*
X144597380Y-40924619D01*
X130706904Y-39808619D02*
X131311666Y-39808619D01*
X131372142Y-40292428D01*
X131311666Y-40244047D01*
X131190714Y-40195666D01*
X130888333Y-40195666D01*
X130767380Y-40244047D01*
X130706904Y-40292428D01*
X130646428Y-40389190D01*
X130646428Y-40631095D01*
X130706904Y-40727857D01*
X130767380Y-40776238D01*
X130888333Y-40824619D01*
X131190714Y-40824619D01*
X131311666Y-40776238D01*
X131372142Y-40727857D01*
X130283571Y-39808619D02*
X129860238Y-40824619D01*
X129436904Y-39808619D01*
X135883809Y-42624619D02*
X135883809Y-41608619D01*
X135581428Y-41608619D01*
X135400000Y-41657000D01*
X135279047Y-41753761D01*
X135218571Y-41850523D01*
X135158095Y-42044047D01*
X135158095Y-42189190D01*
X135218571Y-42382714D01*
X135279047Y-42479476D01*
X135400000Y-42576238D01*
X135581428Y-42624619D01*
X135883809Y-42624619D01*
X134613809Y-42237571D02*
X133646190Y-42237571D01*
D15*
X75960514Y-99803857D02*
X77170038Y-99803857D01*
X77170038Y-96755857D01*
X75113847Y-98207285D02*
X74267180Y-98207285D01*
X73904323Y-99803857D02*
X75113847Y-99803857D01*
X75113847Y-96755857D01*
X73904323Y-96755857D01*
X71969085Y-98207285D02*
X72815752Y-98207285D01*
X72815752Y-99803857D02*
X72815752Y-96755857D01*
X71606228Y-96755857D01*
X71001466Y-96755857D02*
X69550038Y-96755857D01*
X70275752Y-99803857D02*
X70275752Y-96755857D01*
X77170038Y-104883857D02*
X77170038Y-101835857D01*
X77170038Y-103287285D02*
X75718609Y-103287285D01*
X75718609Y-104883857D02*
X75718609Y-101835857D01*
X74630038Y-104013000D02*
X73420514Y-104013000D01*
X74871942Y-104883857D02*
X74025276Y-101835857D01*
X73178609Y-104883857D01*
X72331942Y-104883857D02*
X72331942Y-101835857D01*
X70880514Y-104883857D01*
X70880514Y-101835857D01*
X69670990Y-104883857D02*
X69670990Y-101835857D01*
X69066228Y-101835857D01*
X68703371Y-101981000D01*
X68461466Y-102271285D01*
X68340514Y-102561571D01*
X68219561Y-103142142D01*
X68219561Y-103577571D01*
X68340514Y-104158142D01*
X68461466Y-104448428D01*
X68703371Y-104738714D01*
X69066228Y-104883857D01*
X69670990Y-104883857D01*
D16*
X80010000Y-37465000D02*
X80010000Y-34925000D01*
X77470000Y-37465000D02*
X77470000Y-34925000D01*
X80010000Y-34925000D02*
G75*
G03X78740000Y-33655000I-1270000J0D01*
G01*
X78740000Y-33655000D02*
G75*
G03X77470000Y-34925000I0J-1270000D01*
G01*
X78740000Y-38735000D02*
G75*
G03X80010000Y-37465000I0J1270000D01*
G01*
X77470000Y-37465000D02*
G75*
G03X78740000Y-38735000I1270000J0D01*
G01*
X95250000Y-40005000D02*
X95250000Y-37465000D01*
X92710000Y-37465000D02*
G75*
G02X93980000Y-36195000I1270000J0D01*
G01*
X93980000Y-36195000D02*
G75*
G02X95250000Y-37465000I0J-1270000D01*
G01*
X93980000Y-41275000D02*
G75*
G02X92710000Y-40005000I0J1270000D01*
G01*
X95250000Y-40005000D02*
G75*
G02X93980000Y-41275000I-1270000J0D01*
G01*
X92710000Y-40005000D02*
X92710000Y-37465000D01*
D17*
X73095000Y-46750000D02*
X73095000Y-53100000D01*
X73095000Y-53100000D02*
X75635000Y-53100000D01*
X75635000Y-53100000D02*
X75635000Y-46750000D01*
X75635000Y-46750000D02*
X73095000Y-46750000D01*
X74365000Y-55005000D02*
X74365000Y-53100000D01*
X74365000Y-44845000D02*
X74365000Y-46750000D01*
X76395000Y-46750000D02*
X76395000Y-53100000D01*
X76395000Y-53100000D02*
X78935000Y-53100000D01*
X78935000Y-53100000D02*
X78935000Y-46750000D01*
X78935000Y-46750000D02*
X76395000Y-46750000D01*
X77665000Y-55005000D02*
X77665000Y-53100000D01*
X77665000Y-44845000D02*
X77665000Y-46750000D01*
X79795000Y-46750000D02*
X79795000Y-53100000D01*
X79795000Y-53100000D02*
X82335000Y-53100000D01*
X82335000Y-53100000D02*
X82335000Y-46750000D01*
X82335000Y-46750000D02*
X79795000Y-46750000D01*
X81065000Y-55005000D02*
X81065000Y-53100000D01*
X81065000Y-44845000D02*
X81065000Y-46750000D01*
X101690000Y-37775000D02*
X108040000Y-37775000D01*
X108040000Y-37775000D02*
X108040000Y-35235000D01*
X108040000Y-35235000D02*
X101690000Y-35235000D01*
X101690000Y-35235000D02*
X101690000Y-37775000D01*
X109945000Y-36505000D02*
X108040000Y-36505000D01*
X99785000Y-36505000D02*
X101690000Y-36505000D01*
X101697000Y-41061000D02*
X108047000Y-41061000D01*
X108047000Y-41061000D02*
X108047000Y-38521000D01*
X108047000Y-38521000D02*
X101697000Y-38521000D01*
X101697000Y-38521000D02*
X101697000Y-41061000D01*
X109952000Y-39791000D02*
X108047000Y-39791000D01*
X99792000Y-39791000D02*
X101697000Y-39791000D01*
X160655000Y-51435000D02*
X160655000Y-33655000D01*
X160655000Y-33655000D02*
X191135000Y-33655000D01*
X191135000Y-33655000D02*
X191135000Y-51435000D01*
X191135000Y-51435000D02*
X160655000Y-51435000D01*
X160655000Y-36195000D02*
X163195000Y-36195000D01*
X163195000Y-36195000D02*
X163195000Y-33655000D01*
X91109800Y-30480000D02*
X91109800Y-42545000D01*
X91109800Y-42545000D02*
X81508600Y-42545000D01*
X81508600Y-42545000D02*
X81508600Y-30480000D01*
X66040000Y-58750200D02*
X67818000Y-58750200D01*
X76962000Y-58750200D02*
X78740000Y-58750200D01*
X78740000Y-58750200D02*
X78740000Y-60528200D01*
X78740000Y-69672200D02*
X78740000Y-71450200D01*
X78740000Y-71450200D02*
X76962000Y-71450200D01*
X67818000Y-71450200D02*
X66040000Y-71450200D01*
X66040000Y-71450200D02*
X66040000Y-69672200D01*
X66040000Y-60528200D02*
X66040000Y-58750200D01*
X66040000Y-95260160D02*
X66040000Y-93482160D01*
X66040000Y-84338160D02*
X66040000Y-82560160D01*
X66040000Y-82560160D02*
X67818000Y-82560160D01*
X76962000Y-82560160D02*
X78740000Y-82560160D01*
X78740000Y-82560160D02*
X78740000Y-84338160D01*
X78740000Y-93482160D02*
X78740000Y-95260160D01*
X78740000Y-95260160D02*
X76962000Y-95260160D01*
X67818000Y-95260160D02*
X66040000Y-95260160D01*
X66040000Y-123835160D02*
X66040000Y-122057160D01*
X66040000Y-112913160D02*
X66040000Y-111135160D01*
X66040000Y-111135160D02*
X67818000Y-111135160D01*
X76962000Y-111135160D02*
X78740000Y-111135160D01*
X78740000Y-111135160D02*
X78740000Y-112913160D01*
X78740000Y-122057160D02*
X78740000Y-123835160D01*
X78740000Y-123835160D02*
X76962000Y-123835160D01*
X67818000Y-123835160D02*
X66040000Y-123835160D01*
X180340000Y-136852660D02*
X182118000Y-136852660D01*
X191262000Y-136852660D02*
X193040000Y-136852660D01*
X193040000Y-136852660D02*
X193040000Y-138630660D01*
X193040000Y-147774660D02*
X193040000Y-149552660D01*
X193040000Y-149552660D02*
X191262000Y-149552660D01*
X182118000Y-149552660D02*
X180340000Y-149552660D01*
X180340000Y-149552660D02*
X180340000Y-147774660D01*
X180340000Y-138630660D02*
X180340000Y-136852660D01*
X85090000Y-77797660D02*
X86868000Y-77797660D01*
X96012000Y-77797660D02*
X97790000Y-77797660D01*
X97790000Y-77797660D02*
X97790000Y-79575660D01*
X97790000Y-88719660D02*
X97790000Y-90497660D01*
X97790000Y-90497660D02*
X96012000Y-90497660D01*
X86868000Y-90497660D02*
X85090000Y-90497660D01*
X85090000Y-90497660D02*
X85090000Y-88719660D01*
X85090000Y-79575660D02*
X85090000Y-77797660D01*
X34309520Y-157461652D02*
X35920935Y-156710236D01*
X44208213Y-152845815D02*
X45819628Y-152094400D01*
X45819628Y-152094400D02*
X46571044Y-153705815D01*
X50435465Y-161993093D02*
X51186880Y-163604508D01*
X51186880Y-163604508D02*
X49575465Y-164355924D01*
X41288187Y-168220345D02*
X39676772Y-168971760D01*
X39676772Y-168971760D02*
X38925356Y-167360345D01*
X35060935Y-159073067D02*
X34309520Y-157461652D01*
X42361320Y-174728572D02*
X43972735Y-173977156D01*
X52260013Y-170112735D02*
X53871428Y-169361320D01*
X53871428Y-169361320D02*
X54622844Y-170972735D01*
X58487265Y-179260013D02*
X59238680Y-180871428D01*
X59238680Y-180871428D02*
X57627265Y-181622844D01*
X49339987Y-185487265D02*
X47728572Y-186238680D01*
X47728572Y-186238680D02*
X46977156Y-184627265D01*
X43112735Y-176339987D02*
X42361320Y-174728572D01*
X26260260Y-140197272D02*
X27871675Y-139445856D01*
X36158953Y-135581435D02*
X37770368Y-134830020D01*
X37770368Y-134830020D02*
X38521784Y-136441435D01*
X42386205Y-144728713D02*
X43137620Y-146340128D01*
X43137620Y-146340128D02*
X41526205Y-147091544D01*
X33238927Y-150955965D02*
X31627512Y-151707380D01*
X31627512Y-151707380D02*
X30876096Y-150095965D01*
X27011675Y-141808687D02*
X26260260Y-140197272D01*
X43524640Y-132148012D02*
X45136055Y-131396596D01*
X53423333Y-127532175D02*
X55034748Y-126780760D01*
X55034748Y-126780760D02*
X55786164Y-128392175D01*
X59650585Y-136679453D02*
X60402000Y-138290868D01*
X60402000Y-138290868D02*
X58790585Y-139042284D01*
X50503307Y-142906705D02*
X48891892Y-143658120D01*
X48891892Y-143658120D02*
X48140476Y-142046705D01*
X44276055Y-133759427D02*
X43524640Y-132148012D01*
X161290000Y-60655200D02*
X163068000Y-60655200D01*
X172212000Y-60655200D02*
X173990000Y-60655200D01*
X173990000Y-60655200D02*
X173990000Y-62433200D01*
X173990000Y-71577200D02*
X173990000Y-73355200D01*
X173990000Y-73355200D02*
X172212000Y-73355200D01*
X163068000Y-73355200D02*
X161290000Y-73355200D01*
X161290000Y-73355200D02*
X161290000Y-71577200D01*
X161290000Y-62433200D02*
X161290000Y-60655200D01*
X142240000Y-57477660D02*
X144018000Y-57477660D01*
X153162000Y-57477660D02*
X154940000Y-57477660D01*
X154940000Y-57477660D02*
X154940000Y-59255660D01*
X154940000Y-68399660D02*
X154940000Y-70177660D01*
X154940000Y-70177660D02*
X153162000Y-70177660D01*
X144018000Y-70177660D02*
X142240000Y-70177660D01*
X142240000Y-70177660D02*
X142240000Y-68399660D01*
X142240000Y-59255660D02*
X142240000Y-57477660D01*
X123190000Y-55880000D02*
X124968000Y-55880000D01*
X134112000Y-55880000D02*
X135890000Y-55880000D01*
X135890000Y-55880000D02*
X135890000Y-57658000D01*
X135890000Y-66802000D02*
X135890000Y-68580000D01*
X135890000Y-68580000D02*
X134112000Y-68580000D01*
X124968000Y-68580000D02*
X123190000Y-68580000D01*
X123190000Y-68580000D02*
X123190000Y-66802000D01*
X123190000Y-57658000D02*
X123190000Y-55880000D01*
X104140000Y-57477660D02*
X105918000Y-57477660D01*
X115062000Y-57477660D02*
X116840000Y-57477660D01*
X116840000Y-57477660D02*
X116840000Y-59255660D01*
X116840000Y-68399660D02*
X116840000Y-70177660D01*
X116840000Y-70177660D02*
X115062000Y-70177660D01*
X105918000Y-70177660D02*
X104140000Y-70177660D01*
X104140000Y-70177660D02*
X104140000Y-68399660D01*
X104140000Y-59255660D02*
X104140000Y-57477660D01*
X142240000Y-133677660D02*
X144018000Y-133677660D01*
X153162000Y-133677660D02*
X154940000Y-133677660D01*
X154940000Y-133677660D02*
X154940000Y-135455660D01*
X154940000Y-144599660D02*
X154940000Y-146377660D01*
X154940000Y-146377660D02*
X153162000Y-146377660D01*
X144018000Y-146377660D02*
X142240000Y-146377660D01*
X142240000Y-146377660D02*
X142240000Y-144599660D01*
X142240000Y-135455660D02*
X142240000Y-133677660D01*
X161290000Y-79702660D02*
X163068000Y-79702660D01*
X172212000Y-79702660D02*
X173990000Y-79702660D01*
X173990000Y-79702660D02*
X173990000Y-81480660D01*
X173990000Y-90624660D02*
X173990000Y-92402660D01*
X173990000Y-92402660D02*
X172212000Y-92402660D01*
X163068000Y-92402660D02*
X161290000Y-92402660D01*
X161290000Y-92402660D02*
X161290000Y-90624660D01*
X161290000Y-81480660D02*
X161290000Y-79702660D01*
X123190000Y-74930000D02*
X124968000Y-74930000D01*
X134112000Y-74930000D02*
X135890000Y-74930000D01*
X135890000Y-74930000D02*
X135890000Y-76708000D01*
X135890000Y-85852000D02*
X135890000Y-87630000D01*
X135890000Y-87630000D02*
X134112000Y-87630000D01*
X124968000Y-87630000D02*
X123190000Y-87630000D01*
X123190000Y-87630000D02*
X123190000Y-85852000D01*
X123190000Y-76708000D02*
X123190000Y-74930000D01*
X104140000Y-76527660D02*
X105918000Y-76527660D01*
X115062000Y-76527660D02*
X116840000Y-76527660D01*
X116840000Y-76527660D02*
X116840000Y-78305660D01*
X116840000Y-87449660D02*
X116840000Y-89227660D01*
X116840000Y-89227660D02*
X115062000Y-89227660D01*
X105918000Y-89227660D02*
X104140000Y-89227660D01*
X104140000Y-89227660D02*
X104140000Y-87449660D01*
X104140000Y-78305660D02*
X104140000Y-76527660D01*
X161290000Y-98752660D02*
X163068000Y-98752660D01*
X172212000Y-98752660D02*
X173990000Y-98752660D01*
X173990000Y-98752660D02*
X173990000Y-100530660D01*
X173990000Y-109674660D02*
X173990000Y-111452660D01*
X173990000Y-111452660D02*
X172212000Y-111452660D01*
X163068000Y-111452660D02*
X161290000Y-111452660D01*
X161290000Y-111452660D02*
X161290000Y-109674660D01*
X161290000Y-100530660D02*
X161290000Y-98752660D01*
X142240000Y-95577660D02*
X144018000Y-95577660D01*
X153162000Y-95577660D02*
X154940000Y-95577660D01*
X154940000Y-95577660D02*
X154940000Y-97355660D01*
X154940000Y-106499660D02*
X154940000Y-108277660D01*
X154940000Y-108277660D02*
X153162000Y-108277660D01*
X144018000Y-108277660D02*
X142240000Y-108277660D01*
X142240000Y-108277660D02*
X142240000Y-106499660D01*
X142240000Y-97355660D02*
X142240000Y-95577660D01*
X123190000Y-93980000D02*
X124968000Y-93980000D01*
X134112000Y-93980000D02*
X135890000Y-93980000D01*
X135890000Y-93980000D02*
X135890000Y-95758000D01*
X135890000Y-104902000D02*
X135890000Y-106680000D01*
X135890000Y-106680000D02*
X134112000Y-106680000D01*
X124968000Y-106680000D02*
X123190000Y-106680000D01*
X123190000Y-106680000D02*
X123190000Y-104902000D01*
X123190000Y-95758000D02*
X123190000Y-93980000D01*
X104140000Y-95577660D02*
X105918000Y-95577660D01*
X115062000Y-95577660D02*
X116840000Y-95577660D01*
X116840000Y-95577660D02*
X116840000Y-97355660D01*
X116840000Y-106499660D02*
X116840000Y-108277660D01*
X116840000Y-108277660D02*
X115062000Y-108277660D01*
X105918000Y-108277660D02*
X104140000Y-108277660D01*
X104140000Y-108277660D02*
X104140000Y-106499660D01*
X104140000Y-97355660D02*
X104140000Y-95577660D01*
X85090000Y-96847660D02*
X86868000Y-96847660D01*
X96012000Y-96847660D02*
X97790000Y-96847660D01*
X97790000Y-96847660D02*
X97790000Y-98625660D01*
X97790000Y-107769660D02*
X97790000Y-109547660D01*
X97790000Y-109547660D02*
X96012000Y-109547660D01*
X86868000Y-109547660D02*
X85090000Y-109547660D01*
X85090000Y-109547660D02*
X85090000Y-107769660D01*
X85090000Y-98625660D02*
X85090000Y-96847660D01*
X161290000Y-117802660D02*
X163068000Y-117802660D01*
X172212000Y-117802660D02*
X173990000Y-117802660D01*
X173990000Y-117802660D02*
X173990000Y-119580660D01*
X173990000Y-128724660D02*
X173990000Y-130502660D01*
X173990000Y-130502660D02*
X172212000Y-130502660D01*
X163068000Y-130502660D02*
X161290000Y-130502660D01*
X161290000Y-130502660D02*
X161290000Y-128724660D01*
X161290000Y-119580660D02*
X161290000Y-117802660D01*
X142240000Y-114627660D02*
X144018000Y-114627660D01*
X153162000Y-114627660D02*
X154940000Y-114627660D01*
X154940000Y-114627660D02*
X154940000Y-116405660D01*
X154940000Y-125549660D02*
X154940000Y-127327660D01*
X154940000Y-127327660D02*
X153162000Y-127327660D01*
X144018000Y-127327660D02*
X142240000Y-127327660D01*
X142240000Y-127327660D02*
X142240000Y-125549660D01*
X142240000Y-116405660D02*
X142240000Y-114627660D01*
X123190000Y-113030000D02*
X124968000Y-113030000D01*
X134112000Y-113030000D02*
X135890000Y-113030000D01*
X135890000Y-113030000D02*
X135890000Y-114808000D01*
X135890000Y-123952000D02*
X135890000Y-125730000D01*
X135890000Y-125730000D02*
X134112000Y-125730000D01*
X124968000Y-125730000D02*
X123190000Y-125730000D01*
X123190000Y-125730000D02*
X123190000Y-123952000D01*
X123190000Y-114808000D02*
X123190000Y-113030000D01*
X104140000Y-114627660D02*
X105918000Y-114627660D01*
X115062000Y-114627660D02*
X116840000Y-114627660D01*
X116840000Y-114627660D02*
X116840000Y-116405660D01*
X116840000Y-125549660D02*
X116840000Y-127327660D01*
X116840000Y-127327660D02*
X115062000Y-127327660D01*
X105918000Y-127327660D02*
X104140000Y-127327660D01*
X104140000Y-127327660D02*
X104140000Y-125549660D01*
X104140000Y-116405660D02*
X104140000Y-114627660D01*
X85090000Y-115897660D02*
X86868000Y-115897660D01*
X96012000Y-115897660D02*
X97790000Y-115897660D01*
X97790000Y-115897660D02*
X97790000Y-117675660D01*
X97790000Y-126819660D02*
X97790000Y-128597660D01*
X97790000Y-128597660D02*
X96012000Y-128597660D01*
X86868000Y-128597660D02*
X85090000Y-128597660D01*
X85090000Y-128597660D02*
X85090000Y-126819660D01*
X85090000Y-117675660D02*
X85090000Y-115897660D01*
X161290000Y-136852660D02*
X163068000Y-136852660D01*
X172212000Y-136852660D02*
X173990000Y-136852660D01*
X173990000Y-136852660D02*
X173990000Y-138630660D01*
X173990000Y-147774660D02*
X173990000Y-149552660D01*
X173990000Y-149552660D02*
X172212000Y-149552660D01*
X163068000Y-149552660D02*
X161290000Y-149552660D01*
X161290000Y-149552660D02*
X161290000Y-147774660D01*
X161290000Y-138630660D02*
X161290000Y-136852660D01*
X123190000Y-132080000D02*
X124968000Y-132080000D01*
X134112000Y-132080000D02*
X135890000Y-132080000D01*
X135890000Y-132080000D02*
X135890000Y-133858000D01*
X135890000Y-143002000D02*
X135890000Y-144780000D01*
X135890000Y-144780000D02*
X134112000Y-144780000D01*
X124968000Y-144780000D02*
X123190000Y-144780000D01*
X123190000Y-144780000D02*
X123190000Y-143002000D01*
X123190000Y-133858000D02*
X123190000Y-132080000D01*
X104140000Y-133677660D02*
X105918000Y-133677660D01*
X115062000Y-133677660D02*
X116840000Y-133677660D01*
X116840000Y-133677660D02*
X116840000Y-135455660D01*
X116840000Y-144599660D02*
X116840000Y-146377660D01*
X116840000Y-146377660D02*
X115062000Y-146377660D01*
X105918000Y-146377660D02*
X104140000Y-146377660D01*
X104140000Y-146377660D02*
X104140000Y-144599660D01*
X104140000Y-135455660D02*
X104140000Y-133677660D01*
X78231432Y-161504160D02*
X77480016Y-159892745D01*
X73615595Y-151605467D02*
X72864180Y-149994052D01*
X72864180Y-149994052D02*
X74475595Y-149242636D01*
X82762873Y-145378215D02*
X84374288Y-144626800D01*
X84374288Y-144626800D02*
X85125704Y-146238215D01*
X88990125Y-154525493D02*
X89741540Y-156136908D01*
X89741540Y-156136908D02*
X88130125Y-156888324D01*
X79842847Y-160752745D02*
X78231432Y-161504160D01*
X60967052Y-169555960D02*
X60215636Y-167944545D01*
X56351215Y-159657267D02*
X55599800Y-158045852D01*
X55599800Y-158045852D02*
X57211215Y-157294436D01*
X65498493Y-153430015D02*
X67109908Y-152678600D01*
X67109908Y-152678600D02*
X67861324Y-154290015D01*
X71725745Y-162577293D02*
X72477160Y-164188708D01*
X72477160Y-164188708D02*
X70865745Y-164940124D01*
X62578467Y-168804545D02*
X60967052Y-169555960D01*
X142240000Y-76527660D02*
X144018000Y-76527660D01*
X153162000Y-76527660D02*
X154940000Y-76527660D01*
X154940000Y-76527660D02*
X154940000Y-78305660D01*
X154940000Y-87449660D02*
X154940000Y-89227660D01*
X154940000Y-89227660D02*
X153162000Y-89227660D01*
X144018000Y-89227660D02*
X142240000Y-89227660D01*
X142240000Y-89227660D02*
X142240000Y-87449660D01*
X142240000Y-78305660D02*
X142240000Y-76527660D01*
X85090000Y-58750200D02*
X86868000Y-58750200D01*
X96012000Y-58750200D02*
X97790000Y-58750200D01*
X97790000Y-58750200D02*
X97790000Y-60528200D01*
X97790000Y-69672200D02*
X97790000Y-71450200D01*
X97790000Y-71450200D02*
X96012000Y-71450200D01*
X86868000Y-71450200D02*
X85090000Y-71450200D01*
X85090000Y-71450200D02*
X85090000Y-69672200D01*
X85090000Y-60528200D02*
X85090000Y-58750200D01*
D10*
X66576000Y-43141000D02*
X66576000Y-43341000D01*
X66576000Y-45735000D02*
X66576000Y-45555000D01*
X69803744Y-45424643D02*
G75*
G02X66576000Y-45741000I-1727744J1003643D01*
G01*
X69128006Y-45554068D02*
G75*
G02X67025000Y-45555000I-1052006J1133068D01*
G01*
X66588780Y-43114274D02*
G75*
G02X69826000Y-43461000I1497220J-1306726D01*
G01*
X67062111Y-43341747D02*
G75*
G02X69110000Y-43361000I1013889J-1079253D01*
G01*
X66576000Y-47851000D02*
X66576000Y-48051000D01*
X66576000Y-50445000D02*
X66576000Y-50265000D01*
X69803744Y-50134643D02*
G75*
G02X66576000Y-50451000I-1727744J1003643D01*
G01*
X69128006Y-50264068D02*
G75*
G02X67025000Y-50265000I-1052006J1133068D01*
G01*
X66588780Y-47824274D02*
G75*
G02X69826000Y-48171000I1497220J-1306726D01*
G01*
X67062111Y-48051747D02*
G75*
G02X69110000Y-48071000I1013889J-1079253D01*
G01*
X66576000Y-52851000D02*
X66576000Y-53051000D01*
X66576000Y-55445000D02*
X66576000Y-55265000D01*
X69803744Y-55134643D02*
G75*
G02X66576000Y-55451000I-1727744J1003643D01*
G01*
X69128006Y-55264068D02*
G75*
G02X67025000Y-55265000I-1052006J1133068D01*
G01*
X66588780Y-52824274D02*
G75*
G02X69826000Y-53171000I1497220J-1306726D01*
G01*
X67062111Y-53051747D02*
G75*
G02X69110000Y-53071000I1013889J-1079253D01*
G01*
D17*
X133791960Y-28481020D02*
X133791960Y-37480240D01*
X133791960Y-37480240D02*
X141493240Y-37480240D01*
X141493240Y-37480240D02*
X141493240Y-28481020D01*
X141493240Y-28481020D02*
X133791960Y-28481020D01*
X185102500Y-117802660D02*
X186880500Y-117802660D01*
X196024500Y-117802660D02*
X197802500Y-117802660D01*
X197802500Y-117802660D02*
X197802500Y-119580660D01*
X197802500Y-128724660D02*
X197802500Y-130502660D01*
X197802500Y-130502660D02*
X196024500Y-130502660D01*
X186880500Y-130502660D02*
X185102500Y-130502660D01*
X185102500Y-130502660D02*
X185102500Y-128724660D01*
X185102500Y-119580660D02*
X185102500Y-117802660D01*
X185102500Y-98752660D02*
X186880500Y-98752660D01*
X196024500Y-98752660D02*
X197802500Y-98752660D01*
X197802500Y-98752660D02*
X197802500Y-100530660D01*
X197802500Y-109674660D02*
X197802500Y-111452660D01*
X197802500Y-111452660D02*
X196024500Y-111452660D01*
X186880500Y-111452660D02*
X185102500Y-111452660D01*
X185102500Y-111452660D02*
X185102500Y-109674660D01*
X185102500Y-100530660D02*
X185102500Y-98752660D01*
X185102500Y-79702660D02*
X186880500Y-79702660D01*
X196024500Y-79702660D02*
X197802500Y-79702660D01*
X197802500Y-79702660D02*
X197802500Y-81480660D01*
X197802500Y-90624660D02*
X197802500Y-92402660D01*
X197802500Y-92402660D02*
X196024500Y-92402660D01*
X186880500Y-92402660D02*
X185102500Y-92402660D01*
X185102500Y-92402660D02*
X185102500Y-90624660D01*
X185102500Y-81480660D02*
X185102500Y-79702660D01*
X185102500Y-60655200D02*
X186880500Y-60655200D01*
X196024500Y-60655200D02*
X197802500Y-60655200D01*
X197802500Y-60655200D02*
X197802500Y-62433200D01*
X197802500Y-71577200D02*
X197802500Y-73355200D01*
X197802500Y-73355200D02*
X196024500Y-73355200D01*
X186880500Y-73355200D02*
X185102500Y-73355200D01*
X185102500Y-73355200D02*
X185102500Y-71577200D01*
X185102500Y-62433200D02*
X185102500Y-60655200D01*
D12*
X90542533Y-35360428D02*
X89441866Y-35360428D01*
X90034533Y-35941000D01*
X89780533Y-35941000D01*
X89611200Y-36013571D01*
X89526533Y-36086142D01*
X89441866Y-36231285D01*
X89441866Y-36594142D01*
X89526533Y-36739285D01*
X89611200Y-36811857D01*
X89780533Y-36884428D01*
X90288533Y-36884428D01*
X90457866Y-36811857D01*
X90542533Y-36739285D01*
X88679866Y-36739285D02*
X88595200Y-36811857D01*
X88679866Y-36884428D01*
X88764533Y-36811857D01*
X88679866Y-36739285D01*
X88679866Y-36884428D01*
X86986533Y-35360428D02*
X87833200Y-35360428D01*
X87917866Y-36086142D01*
X87833200Y-36013571D01*
X87663866Y-35941000D01*
X87240533Y-35941000D01*
X87071200Y-36013571D01*
X86986533Y-36086142D01*
X86901866Y-36231285D01*
X86901866Y-36594142D01*
X86986533Y-36739285D01*
X87071200Y-36811857D01*
X87240533Y-36884428D01*
X87663866Y-36884428D01*
X87833200Y-36811857D01*
X87917866Y-36739285D01*
X86139866Y-36884428D02*
X86139866Y-35868428D01*
X86139866Y-36013571D02*
X86055200Y-35941000D01*
X85885866Y-35868428D01*
X85631866Y-35868428D01*
X85462533Y-35941000D01*
X85377866Y-36086142D01*
X85377866Y-36884428D01*
X85377866Y-36086142D02*
X85293200Y-35941000D01*
X85123866Y-35868428D01*
X84869866Y-35868428D01*
X84700533Y-35941000D01*
X84615866Y-36086142D01*
X84615866Y-36884428D01*
X83769200Y-36884428D02*
X83769200Y-35868428D01*
X83769200Y-36013571D02*
X83684533Y-35941000D01*
X83515200Y-35868428D01*
X83261200Y-35868428D01*
X83091866Y-35941000D01*
X83007200Y-36086142D01*
X83007200Y-36884428D01*
X83007200Y-36086142D02*
X82922533Y-35941000D01*
X82753200Y-35868428D01*
X82499200Y-35868428D01*
X82329866Y-35941000D01*
X82245200Y-36086142D01*
X82245200Y-36884428D01*
D10*
X68370238Y-42007380D02*
X68846428Y-42007380D01*
X68846428Y-41007380D01*
X68036904Y-41483571D02*
X67703571Y-41483571D01*
X67560714Y-42007380D02*
X68036904Y-42007380D01*
X68036904Y-41007380D01*
X67560714Y-41007380D01*
X67132142Y-42007380D02*
X67132142Y-41007380D01*
X66894047Y-41007380D01*
X66751190Y-41055000D01*
X66655952Y-41150238D01*
X66608333Y-41245476D01*
X66560714Y-41435952D01*
X66560714Y-41578809D01*
X66608333Y-41769285D01*
X66655952Y-41864523D01*
X66751190Y-41959761D01*
X66894047Y-42007380D01*
X67132142Y-42007380D01*
X65703571Y-42007380D02*
X65703571Y-41483571D01*
X65751190Y-41388333D01*
X65846428Y-41340714D01*
X66036904Y-41340714D01*
X66132142Y-41388333D01*
X65703571Y-41959761D02*
X65798809Y-42007380D01*
X66036904Y-42007380D01*
X66132142Y-41959761D01*
X66179761Y-41864523D01*
X66179761Y-41769285D01*
X66132142Y-41674047D01*
X66036904Y-41626428D01*
X65798809Y-41626428D01*
X65703571Y-41578809D01*
X68070238Y-46817380D02*
X68546428Y-46817380D01*
X68546428Y-45817380D01*
X67736904Y-46293571D02*
X67403571Y-46293571D01*
X67260714Y-46817380D02*
X67736904Y-46817380D01*
X67736904Y-45817380D01*
X67260714Y-45817380D01*
X66832142Y-46817380D02*
X66832142Y-45817380D01*
X66594047Y-45817380D01*
X66451190Y-45865000D01*
X66355952Y-45960238D01*
X66308333Y-46055476D01*
X66260714Y-46245952D01*
X66260714Y-46388809D01*
X66308333Y-46579285D01*
X66355952Y-46674523D01*
X66451190Y-46769761D01*
X66594047Y-46817380D01*
X66832142Y-46817380D01*
X65832142Y-46817380D02*
X65832142Y-45817380D01*
X65832142Y-46198333D02*
X65736904Y-46150714D01*
X65546428Y-46150714D01*
X65451190Y-46198333D01*
X65403571Y-46245952D01*
X65355952Y-46341190D01*
X65355952Y-46626904D01*
X65403571Y-46722142D01*
X65451190Y-46769761D01*
X65546428Y-46817380D01*
X65736904Y-46817380D01*
X65832142Y-46769761D01*
X73236428Y-54617380D02*
X73712619Y-54617380D01*
X73712619Y-53617380D01*
X72903095Y-54093571D02*
X72569761Y-54093571D01*
X72426904Y-54617380D02*
X72903095Y-54617380D01*
X72903095Y-53617380D01*
X72426904Y-53617380D01*
X71998333Y-54617380D02*
X71998333Y-53617380D01*
X71760238Y-53617380D01*
X71617380Y-53665000D01*
X71522142Y-53760238D01*
X71474523Y-53855476D01*
X71426904Y-54045952D01*
X71426904Y-54188809D01*
X71474523Y-54379285D01*
X71522142Y-54474523D01*
X71617380Y-54569761D01*
X71760238Y-54617380D01*
X71998333Y-54617380D01*
X70569761Y-54569761D02*
X70665000Y-54617380D01*
X70855476Y-54617380D01*
X70950714Y-54569761D01*
X70998333Y-54522142D01*
X71045952Y-54426904D01*
X71045952Y-54141190D01*
X70998333Y-54045952D01*
X70950714Y-53998333D01*
X70855476Y-53950714D01*
X70665000Y-53950714D01*
X70569761Y-53998333D01*
M02*
